G75*
%MOIN*%
%OFA0B0*%
%FSLAX24Y24*%
%IPPOS*%
%LPD*%
%AMOC8*
5,1,8,0,0,1.08239X$1,22.5*
%
%ADD10C,0.0020*%
D10*
X000784Y000490D02*
X000878Y000583D01*
X000831Y000583D02*
X000971Y000583D01*
X000971Y000490D02*
X000971Y000770D01*
X000831Y000770D01*
X000784Y000724D01*
X000784Y000630D01*
X000831Y000583D01*
X001061Y000490D02*
X001061Y000770D01*
X001154Y000583D02*
X001061Y000490D01*
X001154Y000583D02*
X001247Y000490D01*
X001247Y000770D01*
X001337Y000724D02*
X001337Y000630D01*
X001384Y000583D01*
X001524Y000583D01*
X001524Y000490D02*
X001524Y000770D01*
X001384Y000770D01*
X001337Y000724D01*
X001384Y000990D02*
X001337Y001037D01*
X001337Y001130D01*
X001430Y001130D01*
X001337Y001224D02*
X001384Y001270D01*
X001477Y001270D01*
X001524Y001224D01*
X001524Y001037D01*
X001477Y000990D01*
X001384Y000990D01*
X001247Y000990D02*
X001247Y001270D01*
X001061Y000990D01*
X001061Y001270D01*
X000971Y001270D02*
X000971Y000990D01*
X000831Y000990D01*
X000784Y001037D01*
X000784Y001224D01*
X000831Y001270D01*
X000971Y001270D01*
X000971Y001490D02*
X000971Y001770D01*
X000831Y001770D01*
X000784Y001724D01*
X000784Y001630D01*
X000831Y001583D01*
X000971Y001583D01*
X001061Y001630D02*
X001247Y001630D01*
X001247Y001490D02*
X001247Y001770D01*
X001201Y001990D02*
X001107Y001990D01*
X001061Y002037D01*
X001061Y002224D02*
X001107Y002270D01*
X001201Y002270D01*
X001247Y002224D01*
X001247Y002037D01*
X001201Y001990D01*
X001061Y001770D02*
X001061Y001490D01*
X000971Y001990D02*
X000784Y001990D01*
X000784Y002177D02*
X000784Y002224D01*
X000831Y002270D01*
X000925Y002270D01*
X000971Y002224D01*
X000784Y002177D02*
X000971Y001990D01*
X000971Y002490D02*
X000784Y002490D01*
X000878Y002490D02*
X000878Y002770D01*
X000971Y002677D01*
X001061Y002724D02*
X001107Y002770D01*
X001201Y002770D01*
X001247Y002724D01*
X001247Y002537D01*
X001201Y002490D01*
X001107Y002490D01*
X001061Y002537D01*
X001061Y002943D02*
X001247Y002943D01*
X001337Y003037D02*
X001337Y003224D01*
X001384Y003270D01*
X001524Y003270D01*
X001524Y002990D01*
X001384Y002990D01*
X001337Y003037D01*
X001247Y003443D02*
X001061Y003443D01*
X000971Y003490D02*
X000971Y003770D01*
X000784Y003490D01*
X000784Y003770D01*
X000971Y003990D02*
X000971Y004270D01*
X000831Y004270D01*
X000784Y004224D01*
X000784Y004130D01*
X000831Y004083D01*
X000971Y004083D01*
X001061Y003943D02*
X001247Y003943D01*
X001337Y003990D02*
X001524Y004270D01*
X001613Y004270D02*
X001613Y004037D01*
X001660Y003990D01*
X001753Y003990D01*
X001800Y004037D01*
X001800Y004270D01*
X001889Y004177D02*
X001889Y003990D01*
X001889Y004130D02*
X002076Y004130D01*
X002076Y004177D02*
X002076Y003990D01*
X002076Y004177D02*
X001983Y004270D01*
X001889Y004177D01*
X001936Y004490D02*
X001889Y004537D01*
X001889Y004630D01*
X001983Y004630D01*
X002076Y004537D02*
X002029Y004490D01*
X001936Y004490D01*
X002076Y004537D02*
X002076Y004724D01*
X002029Y004770D01*
X001936Y004770D01*
X001889Y004724D01*
X001800Y004770D02*
X001800Y004490D01*
X001613Y004490D02*
X001800Y004770D01*
X001800Y004990D02*
X001613Y004990D01*
X001524Y005037D02*
X001477Y004990D01*
X001384Y004990D01*
X001337Y005037D01*
X001337Y005083D01*
X001384Y005130D01*
X001430Y005130D01*
X001384Y005130D02*
X001337Y005177D01*
X001337Y005224D01*
X001384Y005270D01*
X001477Y005270D01*
X001524Y005224D01*
X001477Y005490D02*
X001384Y005490D01*
X001337Y005537D01*
X001337Y005583D01*
X001384Y005630D01*
X001430Y005630D01*
X001384Y005630D02*
X001337Y005677D01*
X001337Y005724D01*
X001384Y005770D01*
X001477Y005770D01*
X001524Y005724D01*
X001524Y005537D02*
X001477Y005490D01*
X001613Y005490D02*
X001800Y005490D01*
X001800Y005770D01*
X001800Y005990D02*
X001800Y006270D01*
X001613Y005990D01*
X001613Y006270D01*
X001524Y006270D02*
X001524Y005990D01*
X001384Y005990D01*
X001337Y006037D01*
X001337Y006224D01*
X001384Y006270D01*
X001524Y006270D01*
X001524Y006490D02*
X001337Y006677D01*
X001337Y006724D01*
X001384Y006770D01*
X001477Y006770D01*
X001524Y006724D01*
X001524Y006990D02*
X001337Y007177D01*
X001337Y007224D01*
X001384Y007270D01*
X001477Y007270D01*
X001524Y007224D01*
X001524Y006990D02*
X001337Y006990D01*
X001247Y006943D02*
X001061Y006943D01*
X000971Y006990D02*
X000971Y007270D01*
X000831Y007270D01*
X000784Y007224D01*
X000784Y007130D01*
X000831Y007083D01*
X000971Y007083D01*
X000971Y006770D02*
X000784Y006490D01*
X000784Y006770D01*
X000971Y006770D02*
X000971Y006490D01*
X001061Y006443D02*
X001247Y006443D01*
X001337Y006490D02*
X001524Y006490D01*
X001613Y006490D02*
X001800Y006490D01*
X001800Y006770D01*
X001800Y006990D02*
X001613Y006990D01*
X001800Y006990D02*
X001800Y007270D01*
X001800Y007490D02*
X001800Y007770D01*
X001613Y007490D01*
X001613Y007770D01*
X001524Y007770D02*
X001524Y007490D01*
X001384Y007490D01*
X001337Y007537D01*
X001337Y007724D01*
X001384Y007770D01*
X001524Y007770D01*
X001524Y007990D02*
X001337Y007990D01*
X001430Y007990D02*
X001430Y008270D01*
X001524Y008177D01*
X001613Y007990D02*
X001800Y007990D01*
X001800Y008270D01*
X001800Y008490D02*
X001613Y008490D01*
X001524Y008490D02*
X001337Y008490D01*
X001430Y008490D02*
X001430Y008770D01*
X001524Y008677D01*
X001524Y008990D02*
X001384Y008990D01*
X001337Y009037D01*
X001337Y009224D01*
X001384Y009270D01*
X001524Y009270D01*
X001524Y008990D01*
X001613Y008990D02*
X001613Y009270D01*
X001800Y009270D02*
X001613Y008990D01*
X001800Y008990D02*
X001800Y009270D01*
X001889Y009224D02*
X001936Y009270D01*
X002029Y009270D01*
X002076Y009224D01*
X002076Y009037D01*
X002029Y008990D01*
X001936Y008990D01*
X001889Y009037D01*
X001889Y009130D01*
X001983Y009130D01*
X001800Y008770D02*
X001800Y008490D01*
X001936Y007770D02*
X001889Y007724D01*
X001936Y007770D02*
X002029Y007770D01*
X002076Y007724D01*
X002076Y007537D01*
X002029Y007490D01*
X001936Y007490D01*
X001889Y007537D01*
X001889Y007630D01*
X001983Y007630D01*
X001247Y007443D02*
X001061Y007443D01*
X000971Y007490D02*
X000784Y007490D01*
X000878Y007490D02*
X000878Y007770D01*
X000971Y007677D01*
X001061Y007943D02*
X001247Y007943D01*
X000971Y007990D02*
X000971Y008270D01*
X000784Y007990D01*
X000784Y008270D01*
X000971Y008490D02*
X000971Y008770D01*
X000831Y008770D01*
X000784Y008724D01*
X000784Y008630D01*
X000831Y008583D01*
X000971Y008583D01*
X001061Y008443D02*
X001247Y008443D01*
X001247Y008943D02*
X001061Y008943D01*
X000971Y009037D02*
X000784Y009224D01*
X000784Y009037D01*
X000831Y008990D01*
X000925Y008990D01*
X000971Y009037D01*
X000971Y009224D01*
X000925Y009270D01*
X000831Y009270D01*
X000784Y009224D01*
X000784Y009490D02*
X000784Y009770D01*
X000971Y009770D02*
X000784Y009490D01*
X000971Y009490D02*
X000971Y009770D01*
X001061Y009943D02*
X001247Y009943D01*
X001337Y010037D02*
X001337Y010224D01*
X001524Y010037D01*
X001477Y009990D01*
X001384Y009990D01*
X001337Y010037D01*
X001337Y010224D02*
X001384Y010270D01*
X001477Y010270D01*
X001524Y010224D01*
X001524Y010037D01*
X001613Y009990D02*
X001800Y009990D01*
X001800Y010270D01*
X001800Y009770D02*
X001800Y009490D01*
X001613Y009490D01*
X001524Y009537D02*
X001524Y009724D01*
X001477Y009770D01*
X001384Y009770D01*
X001337Y009724D01*
X001524Y009537D01*
X001477Y009490D01*
X001384Y009490D01*
X001337Y009537D01*
X001337Y009724D01*
X001247Y009443D02*
X001061Y009443D01*
X000971Y009990D02*
X000971Y010270D01*
X000831Y010270D01*
X000784Y010224D01*
X000784Y010130D01*
X000831Y010083D01*
X000971Y010083D01*
X000925Y006270D02*
X000831Y006270D01*
X000784Y006224D01*
X000784Y006177D01*
X000971Y005990D01*
X000784Y005990D01*
X000831Y005770D02*
X000784Y005724D01*
X000784Y005630D01*
X000831Y005583D01*
X000971Y005583D01*
X000971Y005490D02*
X000971Y005770D01*
X000831Y005770D01*
X001061Y005943D02*
X001247Y005943D01*
X001247Y005443D02*
X001061Y005443D01*
X000971Y005270D02*
X000784Y004990D01*
X000784Y005270D01*
X000971Y005270D02*
X000971Y004990D01*
X001061Y004943D02*
X001247Y004943D01*
X001384Y004770D02*
X001337Y004724D01*
X001337Y004537D01*
X001384Y004490D01*
X001524Y004490D01*
X001524Y004770D01*
X001384Y004770D01*
X001247Y004443D02*
X001061Y004443D01*
X000971Y004537D02*
X000925Y004490D01*
X000831Y004490D01*
X000784Y004537D01*
X000784Y004583D01*
X000831Y004630D01*
X000878Y004630D01*
X000831Y004630D02*
X000784Y004677D01*
X000784Y004724D01*
X000831Y004770D01*
X000925Y004770D01*
X000971Y004724D01*
X001337Y004270D02*
X001524Y003990D01*
X001524Y003770D02*
X001337Y003490D01*
X001524Y003490D02*
X001337Y003770D01*
X001613Y003770D02*
X001613Y003537D01*
X001660Y003490D01*
X001753Y003490D01*
X001800Y003537D01*
X001800Y003770D01*
X001889Y003677D02*
X001889Y003490D01*
X001889Y003630D02*
X002076Y003630D01*
X002076Y003677D02*
X001983Y003770D01*
X001889Y003677D01*
X002076Y003677D02*
X002076Y003490D01*
X002029Y003270D02*
X001936Y003270D01*
X001889Y003224D01*
X001889Y003130D02*
X001983Y003130D01*
X001889Y003130D02*
X001889Y003037D01*
X001936Y002990D01*
X002029Y002990D01*
X002076Y003037D01*
X002076Y003224D01*
X002029Y003270D01*
X001800Y003270D02*
X001800Y002990D01*
X001613Y002990D02*
X001800Y003270D01*
X001613Y003270D02*
X001613Y002990D01*
X000971Y002990D02*
X000971Y003177D01*
X000878Y003270D01*
X000784Y003177D01*
X000784Y002990D01*
X000784Y003130D02*
X000971Y003130D01*
X001613Y004490D02*
X001613Y004770D01*
X001800Y004990D02*
X001800Y005270D01*
X001936Y005990D02*
X001889Y006037D01*
X001889Y006130D01*
X001983Y006130D01*
X002076Y006037D02*
X002029Y005990D01*
X001936Y005990D01*
X002076Y006037D02*
X002076Y006224D01*
X002029Y006270D01*
X001936Y006270D01*
X001889Y006224D01*
X000971Y006224D02*
X000925Y006270D01*
X004332Y005624D02*
X004332Y005437D01*
X004379Y005390D01*
X004472Y005390D01*
X004519Y005437D01*
X004332Y005624D01*
X004379Y005670D01*
X004472Y005670D01*
X004519Y005624D01*
X004519Y005437D01*
X004608Y005390D02*
X004795Y005390D01*
X004702Y005390D02*
X004702Y005670D01*
X004795Y005577D01*
X004748Y005890D02*
X004655Y005890D01*
X004608Y005937D01*
X004608Y006124D01*
X004655Y006170D01*
X004748Y006170D01*
X004795Y006124D01*
X004795Y006077D01*
X004748Y006030D01*
X004608Y006030D01*
X004748Y005890D02*
X004795Y005937D01*
X004748Y006390D02*
X004655Y006390D01*
X004608Y006437D01*
X004608Y006483D01*
X004655Y006530D01*
X004748Y006530D01*
X004795Y006577D01*
X004795Y006624D01*
X004748Y006670D01*
X004655Y006670D01*
X004608Y006624D01*
X004608Y006577D01*
X004655Y006530D01*
X004748Y006530D02*
X004795Y006483D01*
X004795Y006437D01*
X004748Y006390D01*
X004795Y006890D02*
X004795Y006937D01*
X004608Y007124D01*
X004608Y007170D01*
X004795Y007170D01*
X004748Y007390D02*
X004655Y007390D01*
X004608Y007437D01*
X004608Y007483D01*
X004655Y007530D01*
X004795Y007530D01*
X004795Y007437D01*
X004748Y007390D01*
X004795Y007530D02*
X004702Y007624D01*
X004608Y007670D01*
X004655Y007890D02*
X004608Y007937D01*
X004608Y008030D01*
X004655Y008077D01*
X004702Y008077D01*
X004795Y008030D01*
X004795Y008170D01*
X004608Y008170D01*
X004655Y008390D02*
X004655Y008670D01*
X004795Y008530D01*
X004608Y008530D01*
X004655Y008890D02*
X004608Y008937D01*
X004608Y008983D01*
X004655Y009030D01*
X004702Y009030D01*
X004655Y009030D02*
X004608Y009077D01*
X004608Y009124D01*
X004655Y009170D01*
X004748Y009170D01*
X004795Y009124D01*
X004795Y008937D02*
X004748Y008890D01*
X004655Y008890D01*
X004608Y009390D02*
X004795Y009390D01*
X004608Y009577D01*
X004608Y009624D01*
X004655Y009670D01*
X004748Y009670D01*
X004795Y009624D01*
X004795Y009890D02*
X004608Y009890D01*
X004702Y009890D02*
X004702Y010170D01*
X004795Y010077D01*
X004795Y007937D02*
X004748Y007890D01*
X004655Y007890D01*
X004702Y005170D02*
X004702Y004890D01*
X004795Y004890D02*
X004608Y004890D01*
X004519Y004890D02*
X004332Y004890D01*
X004425Y004890D02*
X004425Y005170D01*
X004519Y005077D01*
X004702Y005170D02*
X004795Y005077D01*
X004702Y004670D02*
X004702Y004390D01*
X004795Y004390D02*
X004608Y004390D01*
X004519Y004390D02*
X004332Y004577D01*
X004332Y004624D01*
X004379Y004670D01*
X004472Y004670D01*
X004519Y004624D01*
X004519Y004390D02*
X004332Y004390D01*
X004379Y004170D02*
X004332Y004124D01*
X004332Y004077D01*
X004379Y004030D01*
X004332Y003983D01*
X004332Y003937D01*
X004379Y003890D01*
X004472Y003890D01*
X004519Y003937D01*
X004608Y003890D02*
X004795Y003890D01*
X004702Y003890D02*
X004702Y004170D01*
X004795Y004077D01*
X004702Y003670D02*
X004702Y003390D01*
X004795Y003390D02*
X004608Y003390D01*
X004519Y003530D02*
X004332Y003530D01*
X004379Y003390D02*
X004379Y003670D01*
X004519Y003530D01*
X004702Y003670D02*
X004795Y003577D01*
X004702Y003170D02*
X004702Y002890D01*
X004795Y002890D02*
X004608Y002890D01*
X004519Y002937D02*
X004472Y002890D01*
X004379Y002890D01*
X004332Y002937D01*
X004332Y003030D01*
X004379Y003077D01*
X004425Y003077D01*
X004519Y003030D01*
X004519Y003170D01*
X004332Y003170D01*
X004332Y002670D02*
X004425Y002624D01*
X004519Y002530D01*
X004379Y002530D01*
X004332Y002483D01*
X004332Y002437D01*
X004379Y002390D01*
X004472Y002390D01*
X004519Y002437D01*
X004519Y002530D01*
X004608Y002390D02*
X004795Y002390D01*
X004702Y002390D02*
X004702Y002670D01*
X004795Y002577D01*
X004702Y002170D02*
X004702Y001890D01*
X004795Y001890D02*
X004608Y001890D01*
X004519Y001890D02*
X004519Y001937D01*
X004332Y002124D01*
X004332Y002170D01*
X004519Y002170D01*
X004702Y002170D02*
X004795Y002077D01*
X004702Y001670D02*
X004702Y001390D01*
X004795Y001390D02*
X004608Y001390D01*
X004519Y001437D02*
X004519Y001483D01*
X004472Y001530D01*
X004379Y001530D01*
X004332Y001483D01*
X004332Y001437D01*
X004379Y001390D01*
X004472Y001390D01*
X004519Y001437D01*
X004472Y001530D02*
X004519Y001577D01*
X004519Y001624D01*
X004472Y001670D01*
X004379Y001670D01*
X004332Y001624D01*
X004332Y001577D01*
X004379Y001530D01*
X004379Y001170D02*
X004332Y001124D01*
X004332Y000937D01*
X004379Y000890D01*
X004472Y000890D01*
X004519Y000937D01*
X004608Y000890D02*
X004795Y000890D01*
X004702Y000890D02*
X004702Y001170D01*
X004795Y001077D01*
X004748Y000670D02*
X004655Y000670D01*
X004608Y000624D01*
X004608Y000577D01*
X004795Y000390D01*
X004608Y000390D01*
X004519Y000437D02*
X004332Y000624D01*
X004332Y000437D01*
X004379Y000390D01*
X004472Y000390D01*
X004519Y000437D01*
X004519Y000624D01*
X004472Y000670D01*
X004379Y000670D01*
X004332Y000624D01*
X004332Y001030D02*
X004472Y001030D01*
X004519Y001077D01*
X004519Y001124D01*
X004472Y001170D01*
X004379Y001170D01*
X004795Y001577D02*
X004702Y001670D01*
X004748Y000670D02*
X004795Y000624D01*
X004795Y003077D02*
X004702Y003170D01*
X004425Y004030D02*
X004379Y004030D01*
X004379Y004170D02*
X004472Y004170D01*
X004519Y004124D01*
X004795Y004577D02*
X004702Y004670D01*
M02*
