G75*
%MOIN*%
%OFA0B0*%
%FSLAX24Y24*%
%IPPOS*%
%LPD*%
%AMOC8*
5,1,8,0,0,1.08239X$1,22.5*
%
%ADD10R,0.0290X0.0290*%
%ADD11C,0.0160*%
D10*
X000505Y000580D03*
X000505Y001080D03*
X000505Y001580D03*
X000505Y002080D03*
X000505Y002580D03*
X000505Y003080D03*
X000505Y003580D03*
X000505Y004080D03*
X000505Y004580D03*
X000505Y005080D03*
X000505Y005580D03*
X000505Y006080D03*
X000505Y006580D03*
X000505Y007080D03*
X000505Y007580D03*
X000505Y008080D03*
X000505Y008580D03*
X000505Y009080D03*
X000505Y009580D03*
X000505Y010080D03*
X005005Y010080D03*
X005005Y009580D03*
X005005Y009080D03*
X005005Y008580D03*
X005005Y008080D03*
X005005Y007580D03*
X005005Y007080D03*
X005005Y006580D03*
X005005Y006080D03*
X005005Y005580D03*
X005005Y005080D03*
X005005Y004580D03*
X005005Y004080D03*
X005005Y003580D03*
X005005Y003080D03*
X005005Y002580D03*
X005005Y002080D03*
X005005Y001580D03*
X005005Y001080D03*
X005005Y000580D03*
D11*
X004767Y000830D02*
X004720Y000783D01*
X004720Y000410D01*
X000790Y000410D01*
X000790Y000783D01*
X000743Y000830D01*
X000790Y000877D01*
X000790Y001283D01*
X000743Y001330D01*
X000790Y001377D01*
X000790Y001783D01*
X000743Y001830D01*
X000790Y001877D01*
X000790Y002283D01*
X000743Y002330D01*
X000790Y002377D01*
X000790Y002783D01*
X000743Y002830D01*
X000790Y002877D01*
X000790Y003283D01*
X000743Y003330D01*
X000790Y003377D01*
X000790Y003783D01*
X000743Y003830D01*
X000790Y003877D01*
X000790Y004283D01*
X000743Y004330D01*
X000790Y004377D01*
X000790Y004783D01*
X000743Y004830D01*
X000790Y004877D01*
X000790Y005283D01*
X000743Y005330D01*
X000790Y005377D01*
X000790Y005783D01*
X000743Y005830D01*
X000790Y005877D01*
X000790Y006283D01*
X000743Y006330D01*
X000790Y006377D01*
X000790Y006783D01*
X000743Y006830D01*
X000790Y006877D01*
X000790Y007283D01*
X000743Y007330D01*
X000790Y007377D01*
X000790Y007783D01*
X000743Y007830D01*
X000790Y007877D01*
X000790Y008283D01*
X000743Y008330D01*
X000790Y008377D01*
X000790Y008783D01*
X000743Y008830D01*
X000790Y008877D01*
X000790Y009283D01*
X000743Y009330D01*
X000790Y009377D01*
X000790Y009783D01*
X000743Y009830D01*
X000790Y009877D01*
X000790Y010250D01*
X004720Y010250D01*
X004720Y009877D01*
X004767Y009830D01*
X004720Y009783D01*
X004720Y009377D01*
X004767Y009330D01*
X004720Y009283D01*
X004720Y008877D01*
X004767Y008830D01*
X004720Y008783D01*
X004720Y008377D01*
X004767Y008330D01*
X004720Y008283D01*
X004720Y007877D01*
X004767Y007830D01*
X004720Y007783D01*
X004720Y007377D01*
X004767Y007330D01*
X004720Y007283D01*
X004720Y006877D01*
X004767Y006830D01*
X004720Y006783D01*
X004720Y006377D01*
X004767Y006330D01*
X004720Y006283D01*
X004720Y005877D01*
X004767Y005830D01*
X004720Y005783D01*
X004720Y005377D01*
X004767Y005330D01*
X004720Y005283D01*
X004720Y004877D01*
X004767Y004830D01*
X004720Y004783D01*
X004720Y004377D01*
X004767Y004330D01*
X004720Y004283D01*
X004720Y003877D01*
X004767Y003830D01*
X004720Y003783D01*
X004720Y003377D01*
X004767Y003330D01*
X004720Y003283D01*
X004720Y002877D01*
X004767Y002830D01*
X004720Y002783D01*
X004720Y002377D01*
X004767Y002330D01*
X004720Y002283D01*
X004720Y001877D01*
X004767Y001830D01*
X004720Y001783D01*
X004720Y001377D01*
X004767Y001330D01*
X004720Y001283D01*
X004720Y000877D01*
X004767Y000830D01*
X004751Y000814D02*
X000759Y000814D01*
X000790Y000656D02*
X004720Y000656D01*
X004720Y000497D02*
X000790Y000497D01*
X000790Y000973D02*
X004720Y000973D01*
X004720Y001131D02*
X000790Y001131D01*
X000783Y001290D02*
X004727Y001290D01*
X004720Y001448D02*
X000790Y001448D01*
X000790Y001607D02*
X004720Y001607D01*
X004720Y001765D02*
X000790Y001765D01*
X000790Y001924D02*
X004720Y001924D01*
X004720Y002082D02*
X000790Y002082D01*
X000790Y002241D02*
X004720Y002241D01*
X004720Y002399D02*
X000790Y002399D01*
X000790Y002558D02*
X004720Y002558D01*
X004720Y002716D02*
X000790Y002716D01*
X000787Y002875D02*
X004723Y002875D01*
X004720Y003033D02*
X000790Y003033D01*
X000790Y003192D02*
X004720Y003192D01*
X004747Y003350D02*
X000763Y003350D01*
X000790Y003509D02*
X004720Y003509D01*
X004720Y003667D02*
X000790Y003667D01*
X000747Y003826D02*
X004763Y003826D01*
X004720Y003984D02*
X000790Y003984D01*
X000790Y004143D02*
X004720Y004143D01*
X004738Y004301D02*
X000772Y004301D01*
X000790Y004460D02*
X004720Y004460D01*
X004720Y004618D02*
X000790Y004618D01*
X000790Y004777D02*
X004720Y004777D01*
X004720Y004935D02*
X000790Y004935D01*
X000790Y005094D02*
X004720Y005094D01*
X004720Y005252D02*
X000790Y005252D01*
X000790Y005411D02*
X004720Y005411D01*
X004720Y005569D02*
X000790Y005569D01*
X000790Y005728D02*
X004720Y005728D01*
X004720Y005886D02*
X000790Y005886D01*
X000790Y006045D02*
X004720Y006045D01*
X004720Y006203D02*
X000790Y006203D01*
X000774Y006362D02*
X004735Y006362D01*
X004720Y006520D02*
X000790Y006520D01*
X000790Y006679D02*
X004720Y006679D01*
X004760Y006837D02*
X000750Y006837D01*
X000790Y006996D02*
X004720Y006996D01*
X004720Y007154D02*
X000790Y007154D01*
X000760Y007313D02*
X004750Y007313D01*
X004720Y007471D02*
X000790Y007471D01*
X000790Y007630D02*
X004720Y007630D01*
X004725Y007788D02*
X000785Y007788D01*
X000790Y007947D02*
X004720Y007947D01*
X004720Y008105D02*
X000790Y008105D01*
X000790Y008264D02*
X004720Y008264D01*
X004720Y008422D02*
X000790Y008422D01*
X000790Y008581D02*
X004720Y008581D01*
X004720Y008739D02*
X000790Y008739D01*
X000790Y008898D02*
X004720Y008898D01*
X004720Y009056D02*
X000790Y009056D01*
X000790Y009215D02*
X004720Y009215D01*
X004724Y009373D02*
X000786Y009373D01*
X000790Y009532D02*
X004720Y009532D01*
X004720Y009690D02*
X000790Y009690D01*
X000762Y009849D02*
X004748Y009849D01*
X004720Y010007D02*
X000790Y010007D01*
X000790Y010166D02*
X004720Y010166D01*
M02*
