G75*
%MOIN*%
%OFA0B0*%
%FSLAX24Y24*%
%IPPOS*%
%LPD*%
%AMOC8*
5,1,8,0,0,1.08239X$1,22.5*
%
%ADD10C,0.0020*%
D10*
X001415Y000490D02*
X001415Y000770D01*
X001555Y000770D01*
X001602Y000724D01*
X001602Y000630D01*
X001555Y000583D01*
X001415Y000583D01*
X001462Y000990D02*
X001415Y001037D01*
X001415Y001224D01*
X001462Y001270D01*
X001555Y001270D01*
X001602Y001224D01*
X001602Y001130D02*
X001508Y001130D01*
X001602Y001037D02*
X001555Y000990D01*
X001462Y000990D01*
X001602Y001037D02*
X001602Y001130D01*
X001691Y000990D02*
X001691Y001270D01*
X001878Y000990D01*
X001878Y001270D01*
X001967Y001270D02*
X002108Y001270D01*
X002154Y001224D01*
X002154Y001037D01*
X002108Y000990D01*
X001967Y000990D01*
X001967Y001270D01*
X001831Y001583D02*
X001691Y001583D01*
X001691Y001490D02*
X001691Y001770D01*
X001831Y001770D01*
X001878Y001724D01*
X001878Y001630D01*
X001831Y001583D01*
X001602Y001630D02*
X001415Y001630D01*
X001415Y001490D02*
X001415Y001770D01*
X001462Y001990D02*
X001555Y001990D01*
X001602Y002037D01*
X001691Y001990D02*
X001878Y002177D01*
X001878Y002224D01*
X001831Y002270D01*
X001738Y002270D01*
X001691Y002224D01*
X001602Y002224D02*
X001555Y002270D01*
X001462Y002270D01*
X001415Y002224D01*
X001415Y002037D01*
X001462Y001990D01*
X001602Y001770D02*
X001602Y001490D01*
X001691Y001990D02*
X001878Y001990D01*
X001878Y002490D02*
X001691Y002490D01*
X001602Y002537D02*
X001555Y002490D01*
X001462Y002490D01*
X001415Y002537D01*
X001415Y002724D01*
X001462Y002770D01*
X001555Y002770D01*
X001602Y002724D01*
X001691Y002677D02*
X001785Y002770D01*
X001785Y002490D01*
X001878Y002990D02*
X001878Y003270D01*
X001967Y003270D02*
X002108Y003270D01*
X002154Y003224D01*
X002154Y003037D01*
X002108Y002990D01*
X001967Y002990D01*
X001967Y003270D01*
X001967Y003490D02*
X002154Y003770D01*
X002244Y003943D02*
X002431Y003943D01*
X002520Y003990D02*
X002520Y004270D01*
X002660Y004270D01*
X002707Y004224D01*
X002707Y004130D01*
X002660Y004083D01*
X002520Y004083D01*
X002520Y003770D02*
X002707Y003490D01*
X002707Y003770D01*
X002520Y003770D02*
X002520Y003490D01*
X002431Y003443D02*
X002244Y003443D01*
X002154Y003490D02*
X001967Y003770D01*
X001878Y003770D02*
X001878Y003537D01*
X001831Y003490D01*
X001738Y003490D01*
X001691Y003537D01*
X001691Y003770D01*
X001602Y003677D02*
X001602Y003490D01*
X001602Y003630D02*
X001415Y003630D01*
X001415Y003677D02*
X001508Y003770D01*
X001602Y003677D01*
X001602Y003990D02*
X001602Y004177D01*
X001508Y004270D01*
X001415Y004177D01*
X001415Y003990D01*
X001415Y004130D02*
X001602Y004130D01*
X001691Y004037D02*
X001738Y003990D01*
X001831Y003990D01*
X001878Y004037D01*
X001878Y004270D01*
X001967Y004270D02*
X002154Y003990D01*
X001967Y003990D02*
X002154Y004270D01*
X002244Y004443D02*
X002431Y004443D01*
X002520Y004537D02*
X002567Y004490D01*
X002660Y004490D01*
X002707Y004537D01*
X002707Y004583D01*
X002660Y004630D01*
X002613Y004630D01*
X002660Y004630D02*
X002707Y004677D01*
X002707Y004724D01*
X002660Y004770D01*
X002567Y004770D01*
X002520Y004724D01*
X002431Y004990D02*
X002431Y005270D01*
X002244Y005270D02*
X002431Y004990D01*
X002244Y004990D02*
X002244Y005270D01*
X002154Y005443D02*
X001967Y005443D01*
X001878Y005537D02*
X001878Y005583D01*
X001831Y005630D01*
X001785Y005630D01*
X001831Y005630D02*
X001878Y005677D01*
X001878Y005724D01*
X001831Y005770D01*
X001738Y005770D01*
X001691Y005724D01*
X001691Y005537D02*
X001738Y005490D01*
X001831Y005490D01*
X001878Y005537D01*
X001831Y005270D02*
X001878Y005224D01*
X001878Y005177D01*
X001831Y005130D01*
X001878Y005083D01*
X001878Y005037D01*
X001831Y004990D01*
X001738Y004990D01*
X001691Y005037D01*
X001602Y004990D02*
X001415Y004990D01*
X001415Y005270D01*
X001415Y005490D02*
X001602Y005490D01*
X001738Y005270D02*
X001691Y005224D01*
X001738Y005270D02*
X001831Y005270D01*
X001831Y005130D02*
X001785Y005130D01*
X001967Y004943D02*
X002154Y004943D01*
X002108Y004770D02*
X001967Y004770D01*
X001967Y004490D01*
X002108Y004490D01*
X002154Y004537D01*
X002154Y004724D01*
X002108Y004770D01*
X001878Y004770D02*
X001878Y004490D01*
X001691Y004770D01*
X001691Y004490D01*
X001602Y004537D02*
X001602Y004630D01*
X001508Y004630D01*
X001415Y004537D02*
X001462Y004490D01*
X001555Y004490D01*
X001602Y004537D01*
X001602Y004724D02*
X001555Y004770D01*
X001462Y004770D01*
X001415Y004724D01*
X001415Y004537D01*
X001691Y004270D02*
X001691Y004037D01*
X001415Y003677D02*
X001415Y003490D01*
X001462Y003270D02*
X001415Y003224D01*
X001415Y003037D01*
X001462Y002990D01*
X001555Y002990D01*
X001602Y003037D01*
X001602Y003130D01*
X001508Y003130D01*
X001602Y003224D02*
X001555Y003270D01*
X001462Y003270D01*
X001691Y003270D02*
X001691Y002990D01*
X001878Y002990D02*
X001691Y003270D01*
X002244Y002943D02*
X002431Y002943D01*
X002520Y002990D02*
X002520Y003177D01*
X002613Y003270D01*
X002707Y003177D01*
X002707Y002990D01*
X002707Y003130D02*
X002520Y003130D01*
X003563Y003077D02*
X003656Y003170D01*
X003656Y002890D01*
X003563Y002890D02*
X003749Y002890D01*
X003839Y002937D02*
X003885Y002890D01*
X003979Y002890D01*
X004026Y002937D01*
X004026Y003030D01*
X003979Y003077D01*
X003932Y003077D01*
X003839Y003030D01*
X003839Y003170D01*
X004026Y003170D01*
X003979Y003390D02*
X003979Y003670D01*
X003839Y003530D01*
X004026Y003530D01*
X003979Y003890D02*
X003885Y003890D01*
X003839Y003937D01*
X003749Y003890D02*
X003563Y003890D01*
X003656Y003890D02*
X003656Y004170D01*
X003563Y004077D01*
X003563Y004390D02*
X003749Y004390D01*
X003839Y004390D02*
X004026Y004577D01*
X004026Y004624D01*
X003979Y004670D01*
X003885Y004670D01*
X003839Y004624D01*
X003839Y004390D02*
X004026Y004390D01*
X003979Y004170D02*
X004026Y004124D01*
X004026Y004077D01*
X003979Y004030D01*
X004026Y003983D01*
X004026Y003937D01*
X003979Y003890D01*
X003979Y004030D02*
X003932Y004030D01*
X003839Y004124D02*
X003885Y004170D01*
X003979Y004170D01*
X003656Y004390D02*
X003656Y004670D01*
X003563Y004577D01*
X003563Y004890D02*
X003749Y004890D01*
X003839Y004890D02*
X004026Y004890D01*
X003932Y004890D02*
X003932Y005170D01*
X003839Y005077D01*
X003656Y005170D02*
X003656Y004890D01*
X003563Y005077D02*
X003656Y005170D01*
X003656Y005390D02*
X003656Y005670D01*
X003563Y005577D01*
X003563Y005390D02*
X003749Y005390D01*
X003839Y005437D02*
X004026Y005624D01*
X004026Y005437D01*
X003979Y005390D01*
X003885Y005390D01*
X003839Y005437D01*
X003839Y005624D01*
X003885Y005670D01*
X003979Y005670D01*
X004026Y005624D01*
X003979Y005890D02*
X003885Y005890D01*
X003839Y005937D01*
X003885Y006030D02*
X004026Y006030D01*
X004026Y005937D02*
X003979Y005890D01*
X004026Y005937D02*
X004026Y006124D01*
X003979Y006170D01*
X003885Y006170D01*
X003839Y006124D01*
X003839Y006077D01*
X003885Y006030D01*
X003885Y006390D02*
X003839Y006437D01*
X003839Y006483D01*
X003885Y006530D01*
X003979Y006530D01*
X004026Y006483D01*
X004026Y006437D01*
X003979Y006390D01*
X003885Y006390D01*
X003885Y006530D02*
X003839Y006577D01*
X003839Y006624D01*
X003885Y006670D01*
X003979Y006670D01*
X004026Y006624D01*
X004026Y006577D01*
X003979Y006530D01*
X003839Y006890D02*
X003839Y006937D01*
X004026Y007124D01*
X004026Y007170D01*
X003839Y007170D01*
X003885Y007390D02*
X003839Y007437D01*
X003839Y007530D01*
X003979Y007530D01*
X004026Y007483D01*
X004026Y007437D01*
X003979Y007390D01*
X003885Y007390D01*
X003839Y007530D02*
X003932Y007624D01*
X004026Y007670D01*
X003979Y007890D02*
X003885Y007890D01*
X003839Y007937D01*
X003839Y008030D02*
X003932Y008077D01*
X003979Y008077D01*
X004026Y008030D01*
X004026Y007937D01*
X003979Y007890D01*
X004026Y008170D02*
X003839Y008170D01*
X003839Y008030D01*
X003979Y008390D02*
X003979Y008670D01*
X003839Y008530D01*
X004026Y008530D01*
X003979Y008890D02*
X003885Y008890D01*
X003839Y008937D01*
X003932Y009030D02*
X003979Y009030D01*
X004026Y008983D01*
X004026Y008937D01*
X003979Y008890D01*
X003979Y009030D02*
X004026Y009077D01*
X004026Y009124D01*
X003979Y009170D01*
X003885Y009170D01*
X003839Y009124D01*
X003839Y009390D02*
X004026Y009577D01*
X004026Y009624D01*
X003979Y009670D01*
X003885Y009670D01*
X003839Y009624D01*
X003839Y009390D02*
X004026Y009390D01*
X004026Y009890D02*
X003839Y009890D01*
X003932Y009890D02*
X003932Y010170D01*
X003839Y010077D01*
X002707Y009224D02*
X002707Y009037D01*
X002660Y008990D01*
X002567Y008990D01*
X002520Y009037D01*
X002707Y009224D01*
X002660Y009270D01*
X002567Y009270D01*
X002520Y009224D01*
X002520Y009037D01*
X002431Y008943D02*
X002244Y008943D01*
X002154Y009037D02*
X002154Y009224D01*
X002108Y009270D01*
X001967Y009270D01*
X001967Y008990D01*
X002108Y008990D01*
X002154Y009037D01*
X002244Y008770D02*
X002384Y008770D01*
X002431Y008724D01*
X002431Y008630D01*
X002384Y008583D01*
X002244Y008583D01*
X002244Y008490D02*
X002244Y008770D01*
X002154Y008443D02*
X001967Y008443D01*
X001878Y008490D02*
X001691Y008490D01*
X001602Y008490D02*
X001415Y008490D01*
X001415Y008770D01*
X001462Y008990D02*
X001415Y009037D01*
X001415Y009224D01*
X001462Y009270D01*
X001555Y009270D01*
X001602Y009224D01*
X001602Y009130D02*
X001508Y009130D01*
X001602Y009037D02*
X001555Y008990D01*
X001462Y008990D01*
X001602Y009037D02*
X001602Y009130D01*
X001691Y008990D02*
X001691Y009270D01*
X001878Y008990D01*
X001878Y009270D01*
X001967Y009443D02*
X002154Y009443D01*
X002244Y009490D02*
X002244Y009770D01*
X002431Y009490D01*
X002431Y009770D01*
X002384Y010083D02*
X002244Y010083D01*
X002244Y009990D02*
X002244Y010270D01*
X002384Y010270D01*
X002431Y010224D01*
X002431Y010130D01*
X002384Y010083D01*
X002154Y009943D02*
X001967Y009943D01*
X001878Y010037D02*
X001831Y009990D01*
X001738Y009990D01*
X001691Y010037D01*
X001878Y010224D01*
X001878Y010037D01*
X001878Y010224D02*
X001831Y010270D01*
X001738Y010270D01*
X001691Y010224D01*
X001691Y010037D01*
X001602Y009990D02*
X001415Y009990D01*
X001415Y010270D01*
X001415Y009770D02*
X001415Y009490D01*
X001602Y009490D01*
X001691Y009537D02*
X001878Y009724D01*
X001878Y009537D01*
X001831Y009490D01*
X001738Y009490D01*
X001691Y009537D01*
X001691Y009724D01*
X001738Y009770D01*
X001831Y009770D01*
X001878Y009724D01*
X001785Y008770D02*
X001785Y008490D01*
X001691Y008677D02*
X001785Y008770D01*
X001785Y008270D02*
X001785Y007990D01*
X001878Y007990D02*
X001691Y007990D01*
X001602Y007990D02*
X001415Y007990D01*
X001415Y008270D01*
X001691Y008177D02*
X001785Y008270D01*
X001967Y007943D02*
X002154Y007943D01*
X002244Y007990D02*
X002244Y008270D01*
X002431Y007990D01*
X002431Y008270D01*
X002613Y007770D02*
X002520Y007677D01*
X002613Y007770D02*
X002613Y007490D01*
X002520Y007490D02*
X002707Y007490D01*
X002431Y007443D02*
X002244Y007443D01*
X002154Y007537D02*
X002154Y007724D01*
X002108Y007770D01*
X001967Y007770D01*
X001967Y007490D01*
X002108Y007490D01*
X002154Y007537D01*
X002244Y007270D02*
X002384Y007270D01*
X002431Y007224D01*
X002431Y007130D01*
X002384Y007083D01*
X002244Y007083D01*
X002244Y006990D02*
X002244Y007270D01*
X002154Y006943D02*
X001967Y006943D01*
X001878Y006990D02*
X001691Y006990D01*
X001878Y007177D01*
X001878Y007224D01*
X001831Y007270D01*
X001738Y007270D01*
X001691Y007224D01*
X001602Y006990D02*
X001415Y006990D01*
X001415Y007270D01*
X001462Y007490D02*
X001415Y007537D01*
X001415Y007724D01*
X001462Y007770D01*
X001555Y007770D01*
X001602Y007724D01*
X001602Y007630D02*
X001508Y007630D01*
X001602Y007537D02*
X001555Y007490D01*
X001462Y007490D01*
X001602Y007537D02*
X001602Y007630D01*
X001691Y007490D02*
X001691Y007770D01*
X001878Y007490D01*
X001878Y007770D01*
X001831Y006770D02*
X001738Y006770D01*
X001691Y006724D01*
X001831Y006770D02*
X001878Y006724D01*
X001878Y006677D01*
X001691Y006490D01*
X001878Y006490D01*
X001967Y006443D02*
X002154Y006443D01*
X002244Y006490D02*
X002244Y006770D01*
X002431Y006490D01*
X002431Y006770D01*
X002567Y006270D02*
X002520Y006224D01*
X002567Y006270D02*
X002660Y006270D01*
X002707Y006224D01*
X002707Y006177D01*
X002520Y005990D01*
X002707Y005990D01*
X002431Y005943D02*
X002244Y005943D01*
X002154Y006037D02*
X002154Y006224D01*
X002108Y006270D01*
X001967Y006270D01*
X001967Y005990D01*
X002108Y005990D01*
X002154Y006037D01*
X002244Y005770D02*
X002384Y005770D01*
X002431Y005724D01*
X002431Y005630D01*
X002384Y005583D01*
X002244Y005583D01*
X002244Y005490D02*
X002244Y005770D01*
X001878Y005990D02*
X001878Y006270D01*
X001691Y006270D02*
X001878Y005990D01*
X001691Y005990D02*
X001691Y006270D01*
X001602Y006224D02*
X001555Y006270D01*
X001462Y006270D01*
X001415Y006224D01*
X001415Y006037D01*
X001462Y005990D01*
X001555Y005990D01*
X001602Y006037D01*
X001602Y006130D01*
X001508Y006130D01*
X001415Y005770D02*
X001415Y005490D01*
X001415Y006490D02*
X001602Y006490D01*
X001415Y006490D02*
X001415Y006770D01*
X003656Y003670D02*
X003563Y003577D01*
X003656Y003670D02*
X003656Y003390D01*
X003563Y003390D02*
X003749Y003390D01*
X003656Y002670D02*
X003656Y002390D01*
X003563Y002390D02*
X003749Y002390D01*
X003839Y002437D02*
X003839Y002530D01*
X003979Y002530D01*
X004026Y002483D01*
X004026Y002437D01*
X003979Y002390D01*
X003885Y002390D01*
X003839Y002437D01*
X003839Y002530D02*
X003932Y002624D01*
X004026Y002670D01*
X004026Y002170D02*
X003839Y002170D01*
X004026Y002124D02*
X003839Y001937D01*
X003839Y001890D01*
X003749Y001890D02*
X003563Y001890D01*
X003656Y001890D02*
X003656Y002170D01*
X003563Y002077D01*
X003656Y001670D02*
X003656Y001390D01*
X003563Y001390D02*
X003749Y001390D01*
X003839Y001437D02*
X003839Y001483D01*
X003885Y001530D01*
X003979Y001530D01*
X004026Y001483D01*
X004026Y001437D01*
X003979Y001390D01*
X003885Y001390D01*
X003839Y001437D01*
X003885Y001530D02*
X003839Y001577D01*
X003839Y001624D01*
X003885Y001670D01*
X003979Y001670D01*
X004026Y001624D01*
X004026Y001577D01*
X003979Y001530D01*
X003979Y001170D02*
X003885Y001170D01*
X003839Y001124D01*
X003839Y001077D01*
X003885Y001030D01*
X004026Y001030D01*
X004026Y000937D02*
X003979Y000890D01*
X003885Y000890D01*
X003839Y000937D01*
X003749Y000890D02*
X003563Y000890D01*
X003656Y000890D02*
X003656Y001170D01*
X003563Y001077D01*
X003609Y000670D02*
X003563Y000624D01*
X003609Y000670D02*
X003703Y000670D01*
X003749Y000624D01*
X003749Y000577D01*
X003563Y000390D01*
X003749Y000390D01*
X003839Y000437D02*
X004026Y000624D01*
X004026Y000437D01*
X003979Y000390D01*
X003885Y000390D01*
X003839Y000437D01*
X003839Y000624D01*
X003885Y000670D01*
X003979Y000670D01*
X004026Y000624D01*
X004026Y000937D02*
X004026Y001124D01*
X003979Y001170D01*
X003563Y001577D02*
X003656Y001670D01*
X004026Y002124D02*
X004026Y002170D01*
X003563Y002577D02*
X003656Y002670D01*
X002108Y000770D02*
X002154Y000724D01*
X002154Y000630D01*
X002108Y000583D01*
X001967Y000583D01*
X001967Y000490D02*
X001967Y000770D01*
X002108Y000770D01*
X002061Y000583D02*
X002154Y000490D01*
X001878Y000490D02*
X001878Y000770D01*
X001785Y000583D02*
X001878Y000490D01*
X001785Y000583D02*
X001691Y000490D01*
X001691Y000770D01*
M02*
