%
M48
M72
T01C0.0150
%
T01
X505Y580
X505Y1080
X505Y1580
X505Y2080
X505Y2580
X505Y3080
X505Y3580
X505Y4080
X505Y4580
X505Y5080
X505Y5580
X505Y6080
X505Y6580
X505Y7080
X505Y7580
X505Y8080
X505Y8580
X505Y9080
X505Y9580
X505Y10080
X5005Y10080
X5005Y9580
X5005Y9080
X5005Y8580
X5005Y8080
X5005Y7580
X5005Y7080
X5005Y6580
X5005Y6080
X5005Y5580
X5005Y5080
X5005Y4580
X5005Y4080
X5005Y3580
X5005Y3080
X5005Y2580
X5005Y2080
X5005Y1580
X5005Y1080
X5005Y580
M30
